<?xml version="1.0" encoding="utf-8"?>
<!-- Generator: Adobe Illustrator 18.1.1, SVG Export Plug-In . SVG Version: 6.00 Build 0)  -->
<svg version="1.1" id="Layer_1" xmlns="http://www.w3.org/2000/svg" xmlns:xlink="http://www.w3.org/1999/xlink" x="0px" y="0px"
	 viewBox="0 0 124 124" enable-background="new 0 0 124 124" xml:space="preserve">
<g id="layer1">
	<g id="g2972" transform="matrix(1,0,0,1.030698,-309.364,-543.8647)">
		<path id="path2974" d="M410.5,618.4c-0.6,8.8-5.5,17.8-14,21c-7.3,2.7-16.5,3.1-22.9-2c-4.8-3.5-6.6-11.5-1.6-15.6
			c4.7-4.5,13.9-0.4,13.3,6.2c1.9,4.5-7.8,7.3-2.7,10.5c5.8,1.5,11.8-3.2,13.3-8.8c2.2-7.9,2.1-16.5,0.2-24.5
			c-1-3.9-3.5-10.1-8.7-8.5c-6.8,1.6-10.6,8.3-12.8,14.4c-1.2-8.7-6.7-16.2-13-22c0,17.4,0,34.8,0,52.3l-3.9,0
			c0-35.8,0-72.3,0-108.1l3.9,0c0,17.2,0,35.1,0,52.2c6.2-5.8,11.7-13.1,12.9-21.7c2.2,6.4,6.6,13.5,13.9,14.5
			c5.4,0.3,6.9-6.3,8-10.4c1.4-7.8,1.6-16-0.9-23.6c-1.8-5.3-7.5-9.7-13.2-8.2c-4.6,3.4,4.5,5.8,2.9,10.1c1,6.2-6.7,11.1-12,7.8
			c-5.7-3.1-5.3-11.6-0.9-15.7c3-3.1,8.7-5.1,12.9-5.1c4.3,0,6.8,0.3,10.6,1.7c8.6,3.1,13.7,11.9,14.5,20.6
			c1.3,10-4.3,20.8-13.7,24.7c-6.1,2.4-13.2,0.3-17.8-4c-0.8,4.4-2.7,8.5-5.1,11.5c1.9,3.2,4,8.3,5.1,10c5.9-5.3,16.2-6,22.3-0.7
			C407.4,602.2,411.3,610.3,410.5,618.4z"/>
	</g>
	<g id="g2976" transform="matrix(1,0,0,1.030928,-309.364,-543.9805)">
		<path id="path2978" d="M349.4,641.4h-12.7V533.2h12.7V641.4z"/>
	</g>
</g>
</svg>
