<?xml version="1.0" encoding="utf-8"?>
<!-- Generator: Adobe Illustrator 15.0.0, SVG Export Plug-In . SVG Version: 6.00 Build 0)  -->
<!DOCTYPE svg PUBLIC "-//W3C//DTD SVG 1.1//EN" "http://www.w3.org/Graphics/SVG/1.1/DTD/svg11.dtd">
<svg version="1.1" id="Layer_1" xmlns="http://www.w3.org/2000/svg" xmlns:xlink="http://www.w3.org/1999/xlink" x="0px" y="0px"
	 width="224.054px" height="59.391px" viewBox="0 0 224.054 59.391" enable-background="new 0 0 224.054 59.391"
	 xml:space="preserve">
<g>
	<path fill-rule="evenodd" clip-rule="evenodd" fill="#FFFFFF" d="M163.346,28.809c0-1.482-0.261-2.906-0.782-4.273
		c-0.521-1.366-1.245-2.577-2.171-3.631c-0.019-0.021-0.039-0.039-0.058-0.06c-0.055,0.062-0.116,0.118-0.17,0.182
		c-0.903,1.065-1.604,2.276-2.102,3.631s-0.747,2.739-0.747,4.152c0,1.483,0.255,2.907,0.765,4.273
		c0.509,1.367,1.221,2.577,2.137,3.631c0.027,0.031,0.057,0.057,0.084,0.088c0.064-0.072,0.134-0.136,0.196-0.21
		c0.903-1.065,1.604-2.281,2.102-3.648C163.097,31.577,163.346,30.198,163.346,28.809z"/>
	<path fill-rule="evenodd" clip-rule="evenodd" fill="#FFFFFF" d="M175,20.905c-0.926-1.054-2.015-1.893-3.266-2.519
		c-1.251-0.625-2.618-0.938-4.1-0.938c-1.552,0-2.959,0.33-4.221,0.99c-0.842,0.44-1.595,0.979-2.277,1.599
		c0.069,0.077,0.145,0.147,0.212,0.226c1.007,1.181,1.789,2.519,2.345,4.013c0.556,1.494,0.833,3.005,0.833,4.534
		c0,1.668-0.295,3.254-0.886,4.76c-0.591,1.506-1.402,2.832-2.432,3.978c-0.026,0.029-0.055,0.053-0.081,0.082
		c0.704,0.634,1.485,1.173,2.354,1.604c1.262,0.625,2.646,0.938,4.152,0.938c1.551,0,2.958-0.33,4.221-0.99
		c1.262-0.66,2.345-1.523,3.249-2.588c0.903-1.065,1.604-2.281,2.102-3.648c0.498-1.366,0.747-2.745,0.747-4.135
		c0-1.482-0.261-2.906-0.782-4.273C176.65,23.169,175.926,21.959,175,20.905z"/>
	<path fill-rule="evenodd" clip-rule="evenodd" fill="#FFFFFF" d="M159.331,37.425c-1.02-1.158-1.807-2.49-2.362-3.995
		c-0.556-1.505-0.834-3.045-0.834-4.621c0-1.644,0.295-3.219,0.886-4.725c0.59-1.505,1.401-2.837,2.432-3.995
		c0.02-0.022,0.042-0.042,0.063-0.064c-0.718-0.649-1.51-1.2-2.388-1.639c-1.251-0.625-2.618-0.938-4.1-0.938
		c-1.552,0-2.959,0.33-4.222,0.99c-1.263,0.66-2.345,1.523-3.248,2.589c-0.903,1.065-1.604,2.276-2.102,3.631
		c-0.499,1.355-0.747,2.739-0.747,4.152c0,1.483,0.254,2.907,0.764,4.273c0.509,1.367,1.222,2.577,2.137,3.631
		c0.915,1.054,2.003,1.894,3.266,2.519c1.262,0.625,2.646,0.938,4.152,0.938c1.551,0,2.958-0.33,4.221-0.99
		c0.832-0.435,1.578-0.967,2.253-1.577C159.447,37.541,159.386,37.487,159.331,37.425z"/>
	<path fill-rule="evenodd" clip-rule="evenodd" fill="#FFFFFF" d="M81.562,28.496c0.486-0.602,0.863-1.297,1.129-2.084
		c0.266-0.787,0.399-1.586,0.399-2.397c0-0.834-0.156-1.638-0.469-2.415c-0.313-0.776-0.736-1.459-1.268-2.05
		c-0.533-0.591-1.153-1.065-1.859-1.424c-0.707-0.359-1.465-0.539-2.276-0.539h-8.929v12.924h9.172c0.857,0,1.633-0.185,2.328-0.556
		C80.485,29.585,81.076,29.099,81.562,28.496z"/>
	<path fill-rule="evenodd" clip-rule="evenodd" fill="#FFFFFF" d="M0.054-0.609v60h224v-60H0.054z M61.655,16.475v1.112H45.682
		l-0.009-1.112H61.655z M59.813,27.975v1.112H45.682v-1.112H59.813z M39.281,38.085c-0.718,0.718-1.518,1.32-2.397,1.807
		c-0.88,0.486-1.807,0.851-2.779,1.094s-1.935,0.365-2.884,0.365c-1.667,0-3.208-0.37-4.621-1.112
		c-1.413-0.741-2.623-1.708-3.631-2.901c-1.007-1.193-1.795-2.548-2.362-4.065c-0.568-1.517-0.852-3.063-0.852-4.638
		c0-1.482,0.261-2.953,0.782-4.412c0.521-1.459,1.273-2.774,2.258-3.943c0.984-1.169,2.2-2.119,3.648-2.849
		c1.447-0.729,3.098-1.094,4.951-1.094c2.2,0,4.07,0.504,5.611,1.511c1.54,1.008,2.681,2.299,3.422,3.874l-1.042,0.487
		c-0.463-0.88-1.002-1.621-1.616-2.224c-0.614-0.602-1.28-1.088-1.998-1.459c-0.718-0.37-1.459-0.637-2.224-0.799
		c-0.764-0.162-1.529-0.243-2.293-0.243c-1.645,0-3.109,0.33-4.395,0.99c-1.285,0.66-2.368,1.523-3.248,2.588
		c-0.881,1.066-1.546,2.27-1.998,3.613c-0.452,1.344-0.677,2.699-0.677,4.065c0,1.506,0.266,2.953,0.799,4.343
		c0.533,1.39,1.268,2.612,2.206,3.665c0.938,1.054,2.044,1.894,3.318,2.519c1.273,0.625,2.64,0.938,4.1,0.938
		c0.787,0,1.592-0.098,2.415-0.295c0.822-0.197,1.615-0.498,2.38-0.903c0.764-0.405,1.471-0.921,2.119-1.546
		c0.648-0.625,1.204-1.378,1.668-2.258l1.042,0.417C40.566,36.545,39.999,37.367,39.281,38.085z M61.968,41.142H45.673l0.009-1.112
		h16.286V41.142z M83.056,41.142l-6.149-9.52h-8.616v9.52h-1.181V16.475h10.145c1.019,0,1.963,0.22,2.832,0.66
		c0.869,0.44,1.616,1.014,2.241,1.72c0.625,0.707,1.112,1.511,1.459,2.415c0.348,0.903,0.521,1.819,0.521,2.745
		c0,0.95-0.145,1.853-0.435,2.71c-0.29,0.857-0.707,1.621-1.25,2.293c-0.544,0.672-1.188,1.228-1.928,1.668
		c-0.742,0.44-1.563,0.707-2.467,0.799l6.219,9.659H83.056z M90.942,41.142h-1.181V16.51h1.181V41.142z M128.5,41.142h-1.182
		l-5.663-13.133l-5.698,13.133h-1.146l-10.632-24.667h1.286l9.937,23.243l5.524-12.855l-4.377-10.18h1.216l3.856,9.103l3.892-9.103
		h1.181l-4.378,10.18l5.559,12.855l9.937-23.243h1.32L128.5,41.142z M178.249,33.568c-0.59,1.506-1.401,2.832-2.432,3.978
		c-1.031,1.147-2.247,2.062-3.648,2.745c-1.401,0.683-2.913,1.025-4.534,1.025c-1.714,0-3.272-0.359-4.673-1.077
		c-0.971-0.497-1.844-1.108-2.632-1.817c-0.825,0.745-1.746,1.371-2.769,1.869c-1.402,0.683-2.913,1.025-4.534,1.025
		c-1.714,0-3.272-0.359-4.673-1.077c-1.401-0.718-2.611-1.656-3.63-2.814c-1.02-1.158-1.807-2.49-2.362-3.995
		c-0.556-1.505-0.834-3.045-0.834-4.621c0-1.644,0.295-3.219,0.886-4.725c0.591-1.505,1.401-2.837,2.432-3.995
		c1.03-1.158,2.246-2.079,3.648-2.762c1.401-0.683,2.924-1.025,4.569-1.025c1.69,0,3.242,0.365,4.655,1.094
		c0.964,0.498,1.827,1.11,2.603,1.818c0.828-0.756,1.753-1.387,2.78-1.888c1.401-0.683,2.924-1.025,4.569-1.025
		c1.69,0,3.243,0.365,4.656,1.094c1.412,0.73,2.623,1.685,3.63,2.866c1.008,1.181,1.789,2.519,2.345,4.013s0.834,3.005,0.834,4.534
		C179.135,30.476,178.839,32.063,178.249,33.568z M203.159,33.864c-0.544,1.517-1.32,2.814-2.328,3.891
		c-1.008,1.077-2.229,1.911-3.666,2.501c-1.437,0.591-3.046,0.886-4.83,0.886h-8.025V16.475h8.025c1.946,0,3.648,0.325,5.107,0.973
		c1.459,0.649,2.669,1.529,3.631,2.64c0.96,1.112,1.685,2.415,2.171,3.909c0.486,1.494,0.729,3.087,0.729,4.777
		C203.976,30.65,203.703,32.347,203.159,33.864z"/>
	<path fill-rule="evenodd" clip-rule="evenodd" fill="#FFFFFF" d="M200.084,20.748c-0.881-0.996-1.975-1.772-3.283-2.328
		c-1.309-0.556-2.797-0.834-4.465-0.834h-6.844v22.444h6.844c1.714,0,3.226-0.283,4.534-0.851c1.308-0.567,2.403-1.355,3.283-2.363
		c0.88-1.008,1.54-2.2,1.98-3.579c0.439-1.378,0.66-2.866,0.66-4.464c0-1.621-0.232-3.115-0.695-4.482
		C201.636,22.926,200.964,21.744,200.084,20.748z"/>
</g>
</svg>
