<?xml version="1.0" encoding="utf-8"?>
<!-- Generator: Adobe Illustrator 18.1.1, SVG Export Plug-In . SVG Version: 6.00 Build 0)  -->
<svg version="1.1" id="Layer_1" xmlns="http://www.w3.org/2000/svg" xmlns:xlink="http://www.w3.org/1999/xlink" x="0px" y="0px"
	 viewBox="62 21.6 224.1 59.4" enable-background="new 62 21.6 224.1 59.4" xml:space="preserve">
<path d="M240.3,45.9c-0.6-1.5-1.3-2.8-2.3-4c-1-1.2-2.2-2.1-3.6-2.9c-1.4-0.7-3-1.1-4.7-1.1c-1.6,0-3.2,0.3-4.6,1
	c-1,0.5-2,1.1-2.8,1.9c-0.8-0.7-1.6-1.3-2.6-1.8c-1.4-0.7-3-1.1-4.7-1.1c-1.6,0-3.2,0.3-4.6,1c-1.4,0.7-2.6,1.6-3.6,2.8
	c-1,1.2-1.8,2.5-2.4,4c-0.6,1.5-0.9,3.1-0.9,4.7c0,1.6,0.3,3.1,0.8,4.6c0.6,1.5,1.3,2.8,2.4,4c1,1.2,2.2,2.1,3.6,2.8
	c1.4,0.7,3,1.1,4.7,1.1c1.6,0,3.1-0.3,4.5-1c1-0.5,1.9-1.1,2.8-1.9c0.8,0.7,1.7,1.3,2.6,1.8c1.4,0.7,3,1.1,4.7,1.1
	c1.6,0,3.1-0.3,4.5-1c1.4-0.7,2.6-1.6,3.6-2.7c1-1.1,1.8-2.5,2.4-4c0.6-1.5,0.9-3.1,0.9-4.8C241.1,48.9,240.9,47.4,240.3,45.9z
	 M219.2,60.8c-1.3,0.7-2.7,1-4.2,1c-1.5,0-2.9-0.3-4.2-0.9c-1.3-0.6-2.4-1.5-3.3-2.5c-0.9-1.1-1.6-2.3-2.1-3.6
	c-0.5-1.4-0.8-2.8-0.8-4.3c0-1.4,0.2-2.8,0.7-4.2c0.5-1.4,1.2-2.6,2.1-3.6c0.9-1.1,2-1.9,3.2-2.6c1.3-0.7,2.7-1,4.2-1
	c1.5,0,2.8,0.3,4.1,0.9c0.9,0.4,1.7,1,2.4,1.6c0,0,0,0-0.1,0.1c-1,1.2-1.8,2.5-2.4,4c-0.6,1.5-0.9,3.1-0.9,4.7
	c0,1.6,0.3,3.1,0.8,4.6c0.6,1.5,1.3,2.8,2.4,4c0.1,0.1,0.1,0.1,0.2,0.2C220.8,59.8,220.1,60.4,219.2,60.8z M222.3,58.4
	C222.3,58.4,222.2,58.4,222.3,58.4c-1-1.1-1.7-2.4-2.2-3.7c-0.5-1.4-0.8-2.8-0.8-4.3c0-1.4,0.2-2.8,0.7-4.2c0.5-1.4,1.2-2.6,2.1-3.6
	c0.1-0.1,0.1-0.1,0.2-0.2c0,0,0,0,0.1,0.1c0.9,1.1,1.7,2.3,2.2,3.6c0.5,1.4,0.8,2.8,0.8,4.3c0,1.4-0.2,2.8-0.7,4.1
	c-0.5,1.4-1.2,2.6-2.1,3.6C222.4,58.3,222.4,58.3,222.3,58.4z M239.2,54.6c-0.5,1.4-1.2,2.6-2.1,3.6c-0.9,1.1-2,1.9-3.2,2.6
	c-1.3,0.7-2.7,1-4.2,1c-1.5,0-2.9-0.3-4.2-0.9c-0.9-0.4-1.7-1-2.4-1.6c0,0,0.1-0.1,0.1-0.1c1-1.1,1.8-2.5,2.4-4
	c0.6-1.5,0.9-3.1,0.9-4.8c0-1.5-0.3-3-0.8-4.5c-0.6-1.5-1.3-2.8-2.3-4c-0.1-0.1-0.1-0.1-0.2-0.2c0.7-0.6,1.4-1.2,2.3-1.6
	c1.3-0.7,2.7-1,4.2-1c1.5,0,2.8,0.3,4.1,0.9c1.3,0.6,2.3,1.5,3.3,2.5c0.9,1.1,1.7,2.3,2.2,3.6c0.5,1.4,0.8,2.8,0.8,4.3
	C240,51.8,239.7,53.2,239.2,54.6z"/>
<polygon points="123.7,38.1 123.7,39.2 107.7,39.2 107.7,38.1 "/>
<rect x="107.7" y="49.6" width="14.1" height="1.1"/>
<path d="M101.3,59.7c-0.7,0.7-1.5,1.3-2.4,1.8c-0.9,0.5-1.8,0.9-2.8,1.1S94.2,63,93.2,63c-1.7,0-3.2-0.4-4.6-1.1
	c-1.4-0.7-2.6-1.7-3.6-2.9c-1-1.2-1.8-2.5-2.4-4.1c-0.6-1.5-0.9-3.1-0.9-4.6c0-1.5,0.3-3,0.8-4.4c0.5-1.5,1.3-2.8,2.3-3.9
	c1-1.2,2.2-2.1,3.6-2.8c1.4-0.7,3.1-1.1,5-1.1c2.2,0,4.1,0.5,5.6,1.5c1.5,1,2.7,2.3,3.4,3.9l-1,0.5c-0.5-0.9-1-1.6-1.6-2.2
	c-0.6-0.6-1.3-1.1-2-1.5c-0.7-0.4-1.5-0.6-2.2-0.8c-0.8-0.2-1.5-0.2-2.3-0.2c-1.6,0-3.1,0.3-4.4,1c-1.3,0.7-2.4,1.5-3.2,2.6
	c-0.9,1.1-1.5,2.3-2,3.6c-0.5,1.3-0.7,2.7-0.7,4.1c0,1.5,0.3,3,0.8,4.3c0.5,1.4,1.3,2.6,2.2,3.7c0.9,1.1,2,1.9,3.3,2.5
	c1.3,0.6,2.6,0.9,4.1,0.9c0.8,0,1.6-0.1,2.4-0.3c0.8-0.2,1.6-0.5,2.4-0.9c0.8-0.4,1.5-0.9,2.1-1.5c0.6-0.6,1.2-1.4,1.7-2.3l1,0.4
	C102.6,58.2,102,59,101.3,59.7z"/>
<polygon points="124,62.8 107.7,62.8 107.7,61.6 124,61.6 "/>
<rect x="151.8" y="38.1" width="1.2" height="24.6"/>
<polygon points="190.5,62.8 189.3,62.8 183.7,49.6 178,62.8 176.8,62.8 166.2,38.1 167.5,38.1 177.4,61.3 182.9,48.5 178.5,38.3 
	179.8,38.3 183.6,47.4 187.5,38.3 188.7,38.3 184.3,48.5 189.9,61.3 199.8,38.1 201.1,38.1 "/>
<path d="M265.2,45.6c-0.5-1.5-1.2-2.8-2.2-3.9c-1-1.1-2.2-2-3.6-2.6c-1.5-0.6-3.2-1-5.1-1h-8v24.7h8c1.8,0,3.4-0.3,4.8-0.9
	c1.4-0.6,2.7-1.4,3.7-2.5c1-1.1,1.8-2.4,2.3-3.9c0.5-1.5,0.8-3.2,0.8-5.1C266,48.7,265.7,47.1,265.2,45.6z M264.1,54.8
	c-0.4,1.4-1.1,2.6-2,3.6s-2,1.8-3.3,2.4c-1.3,0.6-2.8,0.9-4.5,0.9h-6.8V39.2h6.8c1.7,0,3.2,0.3,4.5,0.8c1.3,0.6,2.4,1.3,3.3,2.3
	c0.9,1,1.6,2.2,2,3.5c0.5,1.4,0.7,2.9,0.7,4.5C264.8,52,264.6,53.5,264.1,54.8z"/>
<path d="M146.4,62.8l-6.2-9.7c0.9-0.1,1.7-0.4,2.5-0.8c0.7-0.4,1.4-1,1.9-1.7c0.5-0.7,1-1.4,1.3-2.3c0.3-0.9,0.4-1.8,0.4-2.7
	c0-0.9-0.2-1.8-0.5-2.7c-0.3-0.9-0.8-1.7-1.5-2.4c-0.6-0.7-1.4-1.3-2.2-1.7c-0.9-0.4-1.8-0.7-2.8-0.7h-10.1v24.7h1.2v-9.5h8.6
	l6.1,9.5v0H146.4z M130.3,52.1V39.2h8.9c0.8,0,1.6,0.2,2.3,0.5c0.7,0.4,1.3,0.8,1.9,1.4c0.5,0.6,1,1.3,1.3,2
	c0.3,0.8,0.5,1.6,0.5,2.4c0,0.8-0.1,1.6-0.4,2.4s-0.6,1.5-1.1,2.1c-0.5,0.6-1.1,1.1-1.8,1.5c-0.7,0.4-1.5,0.6-2.3,0.6H130.3z"/>
</svg>
