<?xml version="1.0" encoding="utf-8"?>
<!-- Generator: Adobe Illustrator 18.1.1, SVG Export Plug-In . SVG Version: 6.00 Build 0)  -->
<svg version="1.1" id="Layer_1" xmlns="http://www.w3.org/2000/svg" xmlns:xlink="http://www.w3.org/1999/xlink" x="0px" y="0px"
	 viewBox="0 0 1400 36" enable-background="new 0 0 1400 36" xml:space="preserve">
<path fill="#FFFFFF" d="M802.2,36.3c-0.4-0.9-0.8-1.7-1.4-2.4c-0.6-0.7-1.3-1.3-2.2-1.8c-0.8-0.4-1.8-0.7-2.8-0.7
	c-1,0-1.9,0.2-2.8,0.6c-0.6,0.3-1.2,0.7-1.7,1.2c-0.5-0.4-1-0.8-1.6-1.1c-0.8-0.4-1.8-0.7-2.8-0.7c-1,0-1.9,0.2-2.8,0.6
	c-0.8,0.4-1.6,1-2.2,1.7c-0.6,0.7-1.1,1.5-1.5,2.4c-0.4,0.9-0.5,1.9-0.5,2.8s0.2,1.9,0.5,2.8c0.4,0.9,0.8,1.7,1.5,2.4
	c0.6,0.7,1.3,1.3,2.2,1.7c0.8,0.4,1.8,0.7,2.8,0.7c1,0,1.9-0.2,2.7-0.6c0.6-0.3,1.2-0.7,1.7-1.2c0.5,0.4,1,0.8,1.6,1.1
	c0.8,0.4,1.8,0.7,2.8,0.7c1,0,1.9-0.2,2.7-0.6c0.8-0.4,1.6-1,2.2-1.6c0.6-0.7,1.1-1.5,1.5-2.4c0.4-0.9,0.5-1.9,0.5-2.9
	C802.6,38.1,802.5,37.2,802.2,36.3z M789.4,45.4c-0.8,0.4-1.6,0.6-2.5,0.6c-0.9,0-1.8-0.2-2.5-0.5c-0.8-0.4-1.5-0.9-2-1.5
	c-0.5-0.7-1-1.4-1.3-2.2c-0.3-0.8-0.5-1.7-0.5-2.6c0-0.8,0.1-1.7,0.4-2.5c0.3-0.8,0.7-1.6,1.3-2.2c0.5-0.7,1.2-1.2,1.9-1.6
	c0.8-0.4,1.6-0.6,2.5-0.6c0.9,0,1.7,0.2,2.5,0.5c0.5,0.2,1,0.6,1.5,1c0,0,0,0-0.1,0.1c-0.6,0.7-1.1,1.5-1.5,2.4
	c-0.4,0.9-0.5,1.9-0.5,2.8c0,1,0.2,1.9,0.5,2.8c0.4,0.9,0.8,1.7,1.5,2.4c0.1,0.1,0.1,0.1,0.1,0.1C790.3,44.8,789.9,45.1,789.4,45.4z
	 M791.2,43.9C791.2,43.9,791.2,43.9,791.2,43.9c-0.6-0.7-1-1.5-1.3-2.2c-0.3-0.8-0.5-1.7-0.5-2.6c0-0.8,0.1-1.7,0.4-2.5
	c0.3-0.8,0.7-1.6,1.3-2.2c0.1-0.1,0.1-0.1,0.1-0.1c0,0,0,0,0.1,0.1c0.5,0.7,1,1.4,1.3,2.2c0.3,0.8,0.5,1.7,0.5,2.6
	c0,0.8-0.1,1.7-0.4,2.5c-0.3,0.8-0.7,1.6-1.3,2.2C791.3,43.8,791.3,43.8,791.2,43.9z M801.5,41.6c-0.3,0.8-0.7,1.6-1.3,2.2
	c-0.5,0.7-1.2,1.2-1.9,1.6c-0.8,0.4-1.6,0.6-2.5,0.6c-0.9,0-1.8-0.2-2.5-0.5c-0.5-0.2-1-0.6-1.5-1l0.1-0.1c0.6-0.7,1.1-1.5,1.5-2.4
	c0.4-0.9,0.5-1.9,0.5-2.9c0-0.9-0.2-1.8-0.5-2.7c-0.4-0.9-0.8-1.7-1.4-2.4c-0.1-0.1-0.1-0.1-0.1-0.1c0.4-0.4,0.8-0.7,1.4-1
	c0.8-0.4,1.6-0.6,2.5-0.6c0.9,0,1.7,0.2,2.5,0.5s1.4,0.9,2,1.5c0.5,0.7,1,1.4,1.3,2.2c0.3,0.8,0.5,1.7,0.5,2.6
	C802,39.9,801.8,40.8,801.5,41.6z"/>
<polygon fill="#FFFFFF" points="731.5,31.6 731.5,32.3 721.8,32.3 721.8,31.6 "/>
<rect x="721.8" y="38.6" fill="#FFFFFF" width="8.5" height="0.7"/>
<path fill="#FFFFFF" d="M717.9,44.7c-0.4,0.4-0.9,0.8-1.5,1.1c-0.5,0.3-1.1,0.5-1.7,0.7c-0.6,0.1-1.2,0.2-1.8,0.2
	c-1,0-1.9-0.2-2.8-0.7c-0.8-0.4-1.6-1-2.2-1.8s-1.1-1.5-1.5-2.5c-0.4-0.9-0.5-1.9-0.5-2.8c0-0.9,0.2-1.8,0.5-2.7
	c0.3-0.9,0.8-1.7,1.4-2.4c0.6-0.7,1.3-1.3,2.2-1.7c0.8-0.4,1.9-0.7,3-0.7c1.3,0,2.5,0.3,3.4,0.9c0.9,0.6,1.6,1.4,2.1,2.4l-0.6,0.3
	c-0.3-0.5-0.6-1-1-1.3s-0.8-0.7-1.2-0.9c-0.4-0.2-0.9-0.4-1.3-0.5c-0.5-0.1-0.9-0.1-1.4-0.1c-1,0-1.9,0.2-2.7,0.6s-1.5,0.9-1.9,1.6
	c-0.5,0.7-0.9,1.4-1.2,2.2c-0.3,0.8-0.4,1.6-0.4,2.5c0,0.9,0.2,1.8,0.5,2.6c0.3,0.8,0.8,1.6,1.3,2.2s1.2,1.2,2,1.5
	c0.8,0.4,1.6,0.5,2.5,0.5c0.5,0,1-0.1,1.5-0.2s1-0.3,1.5-0.5c0.5-0.2,0.9-0.5,1.3-0.9c0.4-0.4,0.7-0.8,1-1.4l0.6,0.2
	C718.7,43.8,718.3,44.3,717.9,44.7z"/>
<polygon fill="#FFFFFF" points="731.7,46.6 721.8,46.6 721.8,45.8 731.7,45.8 "/>
<rect x="748.5" y="31.6" fill="#FFFFFF" width="0.7" height="14.9"/>
<polygon fill="#FFFFFF" points="772,46.6 771.2,46.6 767.8,38.6 764.4,46.6 763.7,46.6 757.2,31.6 758,31.6 764,45.7 767.4,37.9 
	764.7,31.7 765.5,31.7 767.8,37.2 770.2,31.7 770.9,31.7 768.2,37.9 771.6,45.7 777.6,31.6 778.4,31.6 "/>
<path fill="#FFFFFF" d="M817.2,36.1c-0.3-0.9-0.7-1.7-1.3-2.4c-0.6-0.7-1.3-1.2-2.2-1.6c-0.9-0.4-1.9-0.6-3.1-0.6h-4.8v15h4.8
	c1.1,0,2.1-0.2,2.9-0.5c0.8-0.4,1.6-0.8,2.2-1.5c0.6-0.7,1.1-1.5,1.4-2.4s0.5-1.9,0.5-3.1C817.7,38,817.5,37.1,817.2,36.1z
	 M816.6,41.7c-0.2,0.8-0.7,1.6-1.2,2.2c-0.5,0.6-1.2,1.1-2,1.5c-0.8,0.4-1.7,0.5-2.7,0.5h-4.1V32.3h4.1c1,0,1.9,0.2,2.7,0.5
	c0.8,0.4,1.5,0.8,2,1.4c0.5,0.6,1,1.3,1.2,2.1c0.3,0.8,0.4,1.8,0.4,2.7C817,40,816.9,40.9,816.6,41.7z"/>
<path fill="#FFFFFF" d="M745.2,46.6l-3.8-5.9c0.5-0.1,1-0.2,1.5-0.5c0.4-0.2,0.8-0.6,1.2-1c0.3-0.4,0.6-0.8,0.8-1.4
	c0.2-0.5,0.2-1.1,0.2-1.6s-0.1-1.1-0.3-1.6s-0.5-1-0.9-1.5c-0.4-0.4-0.8-0.8-1.3-1c-0.5-0.2-1.1-0.4-1.7-0.4h-6.1v15h0.7v-5.8h5.2
	l3.7,5.8l0,0C744.5,46.6,745.2,46.6,745.2,46.6z M735.5,40.1v-7.8h5.4c0.5,0,1,0.1,1.4,0.3c0.4,0.2,0.8,0.5,1.2,0.8
	c0.3,0.4,0.6,0.8,0.8,1.2c0.2,0.5,0.3,1,0.3,1.5c0,0.5-0.1,1-0.2,1.5c-0.2,0.5-0.4,0.9-0.7,1.3s-0.7,0.7-1.1,0.9s-0.9,0.4-1.4,0.4
	C741.1,40.1,735.5,40.1,735.5,40.1z"/>
</svg>
